<?xml version="1.0" encoding="UTF-8" standalone="no"?>
<!DOCTYPE svg PUBLIC "-//W3C//DTD SVG 1.1//EN" "http://www.w3.org/Graphics/SVG/1.1/DTD/svg11.dtd">
<svg width="128" height="128" viewBox="0 0 250 250" version="1.1" xmlns="http://www.w3.org/2000/svg" xmlns:xlink="http://www.w3.org/1999/xlink" xml:space="preserve" xmlns:serif="http://www.serif.com/" style="fill-rule:evenodd;clip-rule:evenodd;stroke-linejoin:round;stroke-miterlimit:2;">
    <g transform="matrix(1,0,0,1,-259.917,-139.463)">
        <g transform="matrix(1,0,0,1,9.91663,0.646736)">
            <circle cx="374.836" cy="263.651" r="124.836" style="fill:rgb(244,83,76);"/>
            <clipPath id="_clip1">
                <circle cx="374.836" cy="263.651" r="124.836"/>
            </clipPath>
            <g clip-path="url(#_clip1)">
                <g id="Layer1">
                    <g transform="matrix(1,0,0,1,-9.91663,-0.646736)">
                        <path d="M297.653,358.045C297.653,358.045 333.221,217.401 331.876,203.367C331.594,200.43 312.715,201.778 304.254,202.531C303.329,202.615 302.419,202.246 301.814,201.541C301.209,200.835 300.982,199.881 301.205,198.978C302.263,194.709 303.903,188.085 304.683,184.936C304.952,183.85 305.771,182.985 306.84,182.657C316.978,179.881 371.051,166.965 443.977,185.042C459.139,188.801 486.056,205.904 487.901,229C493.334,297.012 420.854,312.44 409.596,314.421C409.265,314.473 408.982,314.684 408.838,314.985C408.694,315.287 408.708,315.64 408.876,315.93C414.146,325.003 445.863,379.602 445.863,379.602L410.023,398.296C410.023,398.296 374.432,331.42 370.268,323.595C370.024,323.137 369.547,322.851 369.028,322.851C365.433,322.851 351.406,322.851 347.81,322.851C347.312,322.851 346.877,323.185 346.748,323.665C344.777,331.004 330.16,385.445 330.16,385.445L297.653,358.045Z" style="fill:white;"/>
                        <clipPath id="_clip2">
                            <path d="M297.653,358.045C297.653,358.045 333.221,217.401 331.876,203.367C331.594,200.43 312.715,201.778 304.254,202.531C303.329,202.615 302.419,202.246 301.814,201.541C301.209,200.835 300.982,199.881 301.205,198.978C302.263,194.709 303.903,188.085 304.683,184.936C304.952,183.85 305.771,182.985 306.84,182.657C316.978,179.881 371.051,166.965 443.977,185.042C459.139,188.801 486.056,205.904 487.901,229C493.334,297.012 420.854,312.44 409.596,314.421C409.265,314.473 408.982,314.684 408.838,314.985C408.694,315.287 408.708,315.64 408.876,315.93C414.146,325.003 445.863,379.602 445.863,379.602L410.023,398.296C410.023,398.296 374.432,331.42 370.268,323.595C370.024,323.137 369.547,322.851 369.028,322.851C365.433,322.851 351.406,322.851 347.81,322.851C347.312,322.851 346.877,323.185 346.748,323.665C344.777,331.004 330.16,385.445 330.16,385.445L297.653,358.045Z"/>
                        </clipPath>
                        <g clip-path="url(#_clip2)">
                            <path d="M356.458,299.589C355.045,299.691 353.666,299.122 352.737,298.052C351.808,296.982 351.437,295.537 351.736,294.152C355.548,276.48 366.901,223.905 370.268,208.312C370.836,205.678 373.049,203.72 375.732,203.476C393.756,202.088 459.438,199.932 456.175,243.013C452.759,288.1 378.324,297.73 356.458,299.589Z" style="fill:rgb(244,83,76);"/>
                        </g>
                    </g>
                    <g transform="matrix(0.537249,0,0,0.614901,235.329,88.4526)">
                        <path d="M132.548,267.342C132.737,266.428 132.452,265.488 131.771,264.776C131.089,264.063 130.081,263.651 129.018,263.651C119.671,263.651 97.669,263.651 89.646,263.651C87.912,263.651 86.426,264.735 86.117,266.226C85.34,269.97 83.894,276.937 83.004,281.229C82.814,282.144 83.099,283.085 83.782,283.798C84.464,284.512 85.474,284.923 86.538,284.922C95.897,284.91 117.91,284.882 125.932,284.872C127.665,284.87 129.149,283.786 129.457,282.296C130.229,278.562 131.663,271.621 132.548,267.342Z" style="fill:white;"/>
                    </g>
                    <g transform="matrix(0.537249,0,0,0.614901,239.814,59.8307)">
                        <path d="M132.548,267.342C132.737,266.428 132.452,265.488 131.771,264.776C131.089,264.063 130.081,263.651 129.018,263.651C119.671,263.651 97.669,263.651 89.646,263.651C87.912,263.651 86.426,264.735 86.117,266.226C85.34,269.97 83.894,276.937 83.004,281.229C82.814,282.144 83.099,283.085 83.782,283.798C84.464,284.512 85.474,284.923 86.538,284.922C95.897,284.91 117.91,284.882 125.932,284.872C127.665,284.87 129.149,283.786 129.457,282.296C130.229,278.562 131.663,271.621 132.548,267.342Z" style="fill:white;"/>
                    </g>
                </g>
            </g>
        </g>
    </g>
</svg>
